<mxfile host="app.diagrams.net" modified="2023-05-09T16:50:51.181Z" agent="Mozilla/5.0 (Windows NT 10.0; Win64; x64) AppleWebKit/537.36 (KHTML, like Gecko) Chrome/112.0.0.0 Safari/537.36" etag="UTfivnFHHfjhiETmq-xs" version="21.2.9" type="device">
  <diagram name="Σελίδα-1" id="_lJqW_yFYZ5H-BaYLXQz">
    <mxGraphModel dx="3540" dy="1991" grid="1" gridSize="10" guides="1" tooltips="1" connect="1" arrows="1" fold="1" page="1" pageScale="1" pageWidth="1654" pageHeight="1169" math="0" shadow="0">
      <root>
        <mxCell id="0" />
        <mxCell id="1" parent="0" />
        <mxCell id="HmwX1XfFwYf_WI6rh7wV-1" value="Ψυχολόγος" style="shape=umlActor;verticalLabelPosition=bottom;verticalAlign=top;html=1;" parent="1" vertex="1">
          <mxGeometry x="-1530" y="-1020" width="30" height="60" as="geometry" />
        </mxCell>
        <mxCell id="HmwX1XfFwYf_WI6rh7wV-2" value="" style="html=1;points=[];perimeter=orthogonalPerimeter;outlineConnect=0;targetShapes=umlLifeline;portConstraint=eastwest;newEdgeStyle={&quot;edgeStyle&quot;:&quot;elbowEdgeStyle&quot;,&quot;elbow&quot;:&quot;vertical&quot;,&quot;curved&quot;:0,&quot;rounded&quot;:0};" parent="1" vertex="1">
          <mxGeometry x="-1520" y="-890" width="10" height="520" as="geometry" />
        </mxCell>
        <mxCell id="HmwX1XfFwYf_WI6rh7wV-3" value="Λίστα με Αιτήματα Επικοινωνίας" style="shape=umlBoundary;whiteSpace=wrap;html=1;" parent="1" vertex="1">
          <mxGeometry x="-1135" y="-1120" width="115" height="80" as="geometry" />
        </mxCell>
        <mxCell id="HmwX1XfFwYf_WI6rh7wV-4" value=":Psychologist Starting Screen" style="rounded=0;whiteSpace=wrap;html=1;" parent="1" vertex="1">
          <mxGeometry x="-1350" y="-1020" width="120" height="60" as="geometry" />
        </mxCell>
        <mxCell id="HmwX1XfFwYf_WI6rh7wV-5" value="Αρχική οθόνη ψυχολόγου" style="shape=umlBoundary;whiteSpace=wrap;html=1;" parent="1" vertex="1">
          <mxGeometry x="-1340" y="-1120" width="100" height="80" as="geometry" />
        </mxCell>
        <mxCell id="HmwX1XfFwYf_WI6rh7wV-6" value=":List of Contact Requests" style="rounded=0;whiteSpace=wrap;html=1;" parent="1" vertex="1">
          <mxGeometry x="-1137.5" y="-1020" width="120" height="60" as="geometry" />
        </mxCell>
        <mxCell id="HmwX1XfFwYf_WI6rh7wV-7" value="Ημερολόγιο" style="shape=umlBoundary;whiteSpace=wrap;html=1;" parent="1" vertex="1">
          <mxGeometry x="-745" y="-1120" width="100" height="80" as="geometry" />
        </mxCell>
        <mxCell id="HmwX1XfFwYf_WI6rh7wV-8" value="" style="html=1;points=[];perimeter=orthogonalPerimeter;outlineConnect=0;targetShapes=umlLifeline;portConstraint=eastwest;newEdgeStyle={&quot;edgeStyle&quot;:&quot;elbowEdgeStyle&quot;,&quot;elbow&quot;:&quot;vertical&quot;,&quot;curved&quot;:0,&quot;rounded&quot;:0};" parent="1" vertex="1">
          <mxGeometry x="-1295" y="-890" width="10" height="50" as="geometry" />
        </mxCell>
        <mxCell id="HmwX1XfFwYf_WI6rh7wV-9" value="Μήνυμα Επιτυχίας Αιτήματος" style="shape=umlBoundary;whiteSpace=wrap;html=1;" parent="1" vertex="1">
          <mxGeometry x="-580" y="-1120" width="130" height="80" as="geometry" />
        </mxCell>
        <mxCell id="HmwX1XfFwYf_WI6rh7wV-11" value="" style="html=1;points=[];perimeter=orthogonalPerimeter;outlineConnect=0;targetShapes=umlLifeline;portConstraint=eastwest;newEdgeStyle={&quot;edgeStyle&quot;:&quot;elbowEdgeStyle&quot;,&quot;elbow&quot;:&quot;vertical&quot;,&quot;curved&quot;:0,&quot;rounded&quot;:0};" parent="1" vertex="1">
          <mxGeometry x="-1082.5" y="-890" width="10" height="310" as="geometry" />
        </mxCell>
        <mxCell id="HmwX1XfFwYf_WI6rh7wV-12" value="" style="endArrow=classic;html=1;rounded=0;" parent="1" source="HmwX1XfFwYf_WI6rh7wV-2" edge="1">
          <mxGeometry width="50" height="50" relative="1" as="geometry">
            <mxPoint x="-1480" y="-860" as="sourcePoint" />
            <mxPoint x="-1290" y="-880" as="targetPoint" />
          </mxGeometry>
        </mxCell>
        <mxCell id="HmwX1XfFwYf_WI6rh7wV-13" value="click &quot;Αιτήματα Επικοινωνίας&quot;" style="edgeLabel;html=1;align=center;verticalAlign=middle;resizable=0;points=[];" parent="HmwX1XfFwYf_WI6rh7wV-12" vertex="1" connectable="0">
          <mxGeometry x="0.1867" y="-2" relative="1" as="geometry">
            <mxPoint x="-28" y="-12" as="offset" />
          </mxGeometry>
        </mxCell>
        <mxCell id="HmwX1XfFwYf_WI6rh7wV-14" value="" style="html=1;points=[];perimeter=orthogonalPerimeter;outlineConnect=0;targetShapes=umlLifeline;portConstraint=eastwest;newEdgeStyle={&quot;edgeStyle&quot;:&quot;elbowEdgeStyle&quot;,&quot;elbow&quot;:&quot;vertical&quot;,&quot;curved&quot;:0,&quot;rounded&quot;:0};" parent="1" vertex="1">
          <mxGeometry x="-890" y="-870" width="10" height="570" as="geometry" />
        </mxCell>
        <mxCell id="HmwX1XfFwYf_WI6rh7wV-15" value="" style="endArrow=classic;html=1;rounded=0;" parent="1" edge="1">
          <mxGeometry width="50" height="50" relative="1" as="geometry">
            <mxPoint x="-1285" y="-870" as="sourcePoint" />
            <mxPoint x="-1095" y="-870" as="targetPoint" />
          </mxGeometry>
        </mxCell>
        <mxCell id="HmwX1XfFwYf_WI6rh7wV-16" value="displayContactRequests()" style="edgeLabel;html=1;align=center;verticalAlign=middle;resizable=0;points=[];" parent="HmwX1XfFwYf_WI6rh7wV-15" vertex="1" connectable="0">
          <mxGeometry x="0.2588" y="3" relative="1" as="geometry">
            <mxPoint x="-17" y="-7" as="offset" />
          </mxGeometry>
        </mxCell>
        <mxCell id="HmwX1XfFwYf_WI6rh7wV-17" value="" style="endArrow=classic;html=1;rounded=0;" parent="1" edge="1">
          <mxGeometry width="50" height="50" relative="1" as="geometry">
            <mxPoint x="-1070" y="-850" as="sourcePoint" />
            <mxPoint x="-890" y="-850" as="targetPoint" />
          </mxGeometry>
        </mxCell>
        <mxCell id="HmwX1XfFwYf_WI6rh7wV-18" value="getRequests()" style="edgeLabel;html=1;align=center;verticalAlign=middle;resizable=0;points=[];" parent="HmwX1XfFwYf_WI6rh7wV-17" vertex="1" connectable="0">
          <mxGeometry x="0.3444" relative="1" as="geometry">
            <mxPoint x="-21" y="-10" as="offset" />
          </mxGeometry>
        </mxCell>
        <mxCell id="HmwX1XfFwYf_WI6rh7wV-19" value=":Contact Request" style="rounded=0;whiteSpace=wrap;html=1;" parent="1" vertex="1">
          <mxGeometry x="-945" y="-1020" width="120" height="60" as="geometry" />
        </mxCell>
        <mxCell id="HmwX1XfFwYf_WI6rh7wV-20" value="returnRequests()" style="html=1;verticalAlign=bottom;endArrow=open;dashed=1;endSize=8;edgeStyle=elbowEdgeStyle;elbow=vertical;curved=0;rounded=0;" parent="1" edge="1">
          <mxGeometry relative="1" as="geometry">
            <mxPoint x="-890" y="-810" as="sourcePoint" />
            <mxPoint x="-1072.5" y="-810" as="targetPoint" />
          </mxGeometry>
        </mxCell>
        <mxCell id="HmwX1XfFwYf_WI6rh7wV-21" value="" style="endArrow=classic;html=1;rounded=0;" parent="1" edge="1">
          <mxGeometry width="50" height="50" relative="1" as="geometry">
            <mxPoint x="-1505" y="-760" as="sourcePoint" />
            <mxPoint x="-1090" y="-760" as="targetPoint" />
          </mxGeometry>
        </mxCell>
        <mxCell id="HmwX1XfFwYf_WI6rh7wV-22" value="selectRequest()" style="edgeLabel;html=1;align=center;verticalAlign=middle;resizable=0;points=[];" parent="HmwX1XfFwYf_WI6rh7wV-21" vertex="1" connectable="0">
          <mxGeometry x="0.1867" y="-2" relative="1" as="geometry">
            <mxPoint x="-28" y="-12" as="offset" />
          </mxGeometry>
        </mxCell>
        <mxCell id="HmwX1XfFwYf_WI6rh7wV-23" value="" style="html=1;points=[];perimeter=orthogonalPerimeter;outlineConnect=0;targetShapes=umlLifeline;portConstraint=eastwest;newEdgeStyle={&quot;edgeStyle&quot;:&quot;elbowEdgeStyle&quot;,&quot;elbow&quot;:&quot;vertical&quot;,&quot;curved&quot;:0,&quot;rounded&quot;:0};" parent="1" vertex="1">
          <mxGeometry x="-700" y="-630" width="10" height="60" as="geometry" />
        </mxCell>
        <mxCell id="HmwX1XfFwYf_WI6rh7wV-24" value="" style="endArrow=classic;html=1;rounded=0;" parent="1" edge="1">
          <mxGeometry width="50" height="50" relative="1" as="geometry">
            <mxPoint x="-1072.5" y="-730" as="sourcePoint" />
            <mxPoint x="-890" y="-729.5" as="targetPoint" />
          </mxGeometry>
        </mxCell>
        <mxCell id="HmwX1XfFwYf_WI6rh7wV-25" value="displayRequestInformation()" style="edgeLabel;html=1;align=center;verticalAlign=middle;resizable=0;points=[];" parent="HmwX1XfFwYf_WI6rh7wV-24" vertex="1" connectable="0">
          <mxGeometry x="0.2923" relative="1" as="geometry">
            <mxPoint x="-26" y="-14" as="offset" />
          </mxGeometry>
        </mxCell>
        <mxCell id="HmwX1XfFwYf_WI6rh7wV-26" value="" style="endArrow=classic;html=1;rounded=0;" parent="1" edge="1" target="HmwX1XfFwYf_WI6rh7wV-23">
          <mxGeometry width="50" height="50" relative="1" as="geometry">
            <mxPoint x="-1070" y="-610" as="sourcePoint" />
            <mxPoint x="-700" y="-650" as="targetPoint" />
          </mxGeometry>
        </mxCell>
        <mxCell id="HmwX1XfFwYf_WI6rh7wV-27" value="setDateAndTime()" style="edgeLabel;html=1;align=center;verticalAlign=middle;resizable=0;points=[];" parent="HmwX1XfFwYf_WI6rh7wV-26" vertex="1" connectable="0">
          <mxGeometry x="0.1662" y="4" relative="1" as="geometry">
            <mxPoint x="-116" y="-6" as="offset" />
          </mxGeometry>
        </mxCell>
        <mxCell id="HmwX1XfFwYf_WI6rh7wV-28" value=":Exam Paper &amp;amp; Corrections" style="rounded=0;whiteSpace=wrap;html=1;" parent="1" vertex="1">
          <mxGeometry x="-755" y="-1020" width="120" height="60" as="geometry" />
        </mxCell>
        <mxCell id="HmwX1XfFwYf_WI6rh7wV-32" value="Αίτημα Επικοινωνίας" style="ellipse;shape=umlEntity;whiteSpace=wrap;html=1;" parent="1" vertex="1">
          <mxGeometry x="-925" y="-1120" width="80" height="80" as="geometry" />
        </mxCell>
        <mxCell id="HmwX1XfFwYf_WI6rh7wV-33" value=":Request Success Message" style="rounded=0;whiteSpace=wrap;html=1;" parent="1" vertex="1">
          <mxGeometry x="-575" y="-1020" width="120" height="60" as="geometry" />
        </mxCell>
        <mxCell id="HmwX1XfFwYf_WI6rh7wV-53" value="" style="endArrow=classic;html=1;rounded=0;" parent="1" edge="1">
          <mxGeometry width="50" height="50" relative="1" as="geometry">
            <mxPoint x="-690" y="-585" as="sourcePoint" />
            <mxPoint x="-520" y="-585" as="targetPoint" />
          </mxGeometry>
        </mxCell>
        <mxCell id="HmwX1XfFwYf_WI6rh7wV-54" value="notificationOfAcceptance()" style="edgeLabel;html=1;align=center;verticalAlign=middle;resizable=0;points=[];" parent="HmwX1XfFwYf_WI6rh7wV-53" vertex="1" connectable="0">
          <mxGeometry x="0.1662" y="4" relative="1" as="geometry">
            <mxPoint x="-15" y="-6" as="offset" />
          </mxGeometry>
        </mxCell>
        <mxCell id="HmwX1XfFwYf_WI6rh7wV-60" value="Alternative" style="shape=umlFrame;whiteSpace=wrap;html=1;pointerEvents=0;fillColor=#dae8fc;strokeColor=#6c8ebf;width=70;height=39;" parent="1" vertex="1">
          <mxGeometry x="-1600" y="-680" width="1240" height="400" as="geometry" />
        </mxCell>
        <mxCell id="HmwX1XfFwYf_WI6rh7wV-61" value="" style="endArrow=none;dashed=1;html=1;rounded=0;fillColor=#dae8fc;strokeColor=#6c8ebf;entryX=0.999;entryY=0.523;entryDx=0;entryDy=0;entryPerimeter=0;exitX=0;exitY=0.524;exitDx=0;exitDy=0;exitPerimeter=0;" parent="1" source="HmwX1XfFwYf_WI6rh7wV-60" target="HmwX1XfFwYf_WI6rh7wV-60" edge="1">
          <mxGeometry width="50" height="50" relative="1" as="geometry">
            <mxPoint x="-1600" y="-429" as="sourcePoint" />
            <mxPoint x="-810" y="-430" as="targetPoint" />
          </mxGeometry>
        </mxCell>
        <mxCell id="HmwX1XfFwYf_WI6rh7wV-62" value="" style="endArrow=classic;html=1;rounded=0;" parent="1" edge="1">
          <mxGeometry width="50" height="50" relative="1" as="geometry">
            <mxPoint x="-1510" y="-390" as="sourcePoint" />
            <mxPoint x="-890" y="-390" as="targetPoint" />
            <Array as="points">
              <mxPoint x="-990" y="-390" />
            </Array>
          </mxGeometry>
        </mxCell>
        <mxCell id="HmwX1XfFwYf_WI6rh7wV-63" value="declineRequest()" style="edgeLabel;html=1;align=center;verticalAlign=middle;resizable=0;points=[];" parent="HmwX1XfFwYf_WI6rh7wV-62" vertex="1" connectable="0">
          <mxGeometry x="0.1867" y="-2" relative="1" as="geometry">
            <mxPoint x="-28" y="-12" as="offset" />
          </mxGeometry>
        </mxCell>
        <mxCell id="HmwX1XfFwYf_WI6rh7wV-67" value="" style="endArrow=classic;html=1;rounded=0;" parent="1" target="HmwX1XfFwYf_WI6rh7wV-51" edge="1">
          <mxGeometry width="50" height="50" relative="1" as="geometry">
            <mxPoint x="-880" y="-320" as="sourcePoint" />
            <mxPoint x="-710" y="-320" as="targetPoint" />
          </mxGeometry>
        </mxCell>
        <mxCell id="HmwX1XfFwYf_WI6rh7wV-68" value="deleteRequest()" style="edgeLabel;html=1;align=center;verticalAlign=middle;resizable=0;points=[];" parent="HmwX1XfFwYf_WI6rh7wV-67" vertex="1" connectable="0">
          <mxGeometry x="0.1662" y="4" relative="1" as="geometry">
            <mxPoint x="-15" y="-6" as="offset" />
          </mxGeometry>
        </mxCell>
        <mxCell id="LnwAzEKbne95_ppzDad2-1" value="returnRequests()" style="html=1;verticalAlign=bottom;endArrow=open;dashed=1;endSize=8;edgeStyle=elbowEdgeStyle;elbow=vertical;curved=0;rounded=0;" edge="1" parent="1">
          <mxGeometry relative="1" as="geometry">
            <mxPoint x="-890" y="-700" as="sourcePoint" />
            <mxPoint x="-1072.5" y="-700" as="targetPoint" />
          </mxGeometry>
        </mxCell>
        <mxCell id="LnwAzEKbne95_ppzDad2-2" value="" style="endArrow=classic;html=1;rounded=0;" edge="1" parent="1" source="HmwX1XfFwYf_WI6rh7wV-2" target="HmwX1XfFwYf_WI6rh7wV-11">
          <mxGeometry width="50" height="50" relative="1" as="geometry">
            <mxPoint x="-1500" y="-670" as="sourcePoint" />
            <mxPoint x="-1085" y="-670" as="targetPoint" />
            <Array as="points">
              <mxPoint x="-1180" y="-640" />
            </Array>
          </mxGeometry>
        </mxCell>
        <mxCell id="LnwAzEKbne95_ppzDad2-3" value="acceptRequest()" style="edgeLabel;html=1;align=center;verticalAlign=middle;resizable=0;points=[];" vertex="1" connectable="0" parent="LnwAzEKbne95_ppzDad2-2">
          <mxGeometry x="0.1867" y="-2" relative="1" as="geometry">
            <mxPoint x="-28" y="-12" as="offset" />
          </mxGeometry>
        </mxCell>
        <mxCell id="HmwX1XfFwYf_WI6rh7wV-51" value="" style="html=1;points=[];perimeter=orthogonalPerimeter;outlineConnect=0;targetShapes=umlLifeline;portConstraint=eastwest;newEdgeStyle={&quot;edgeStyle&quot;:&quot;elbowEdgeStyle&quot;,&quot;elbow&quot;:&quot;vertical&quot;,&quot;curved&quot;:0,&quot;rounded&quot;:0};" parent="1" vertex="1">
          <mxGeometry x="-520" y="-600" width="10" height="310" as="geometry" />
        </mxCell>
        <mxCell id="LnwAzEKbne95_ppzDad2-6" value="" style="endArrow=classic;html=1;rounded=0;" edge="1" parent="1" source="HmwX1XfFwYf_WI6rh7wV-51" target="HmwX1XfFwYf_WI6rh7wV-51">
          <mxGeometry width="50" height="50" relative="1" as="geometry">
            <mxPoint x="-500" y="-559" as="sourcePoint" />
            <mxPoint x="-420" y="-609" as="targetPoint" />
            <Array as="points">
              <mxPoint x="-450" y="-559" />
              <mxPoint x="-450" y="-530" />
            </Array>
          </mxGeometry>
        </mxCell>
        <mxCell id="LnwAzEKbne95_ppzDad2-7" value="requestSuccesfull()" style="edgeLabel;html=1;align=center;verticalAlign=middle;resizable=0;points=[];" vertex="1" connectable="0" parent="LnwAzEKbne95_ppzDad2-6">
          <mxGeometry x="0.5248" y="-1" relative="1" as="geometry">
            <mxPoint x="20" y="11" as="offset" />
          </mxGeometry>
        </mxCell>
      </root>
    </mxGraphModel>
  </diagram>
</mxfile>
